<svg width="187" height="37" viewBox="0 0 187 37" fill="none" xmlns="http://www.w3.org/2000/svg">
<path d="M179.01 5H156.123C151.956 5 148.566 8.28884 148.566 12.3307V24.6693C148.566 28.7119 151.956 32 156.123 32H179.01C183.177 32 186.566 28.7112 186.566 24.6693V12.3307C186.566 8.28884 183.177 5 179.01 5ZM185.015 24.67C185.015 27.8854 182.321 30.5007 179.01 30.5007H156.123C152.812 30.5007 150.117 27.8846 150.117 24.67V12.3307C150.117 9.11611 152.812 6.50004 156.123 6.50004H179.01C182.321 6.50004 185.015 9.11611 185.015 12.3307V24.67Z" fill="#D2D2D2"/>
<path d="M174.625 18.3375L164.139 12.105C163.906 11.9668 163.616 11.9645 163.381 12.1012C163.145 12.2379 163 12.4921 163 12.7678V25.232C163 25.5069 163.145 25.7619 163.38 25.8986C163.497 25.9662 163.627 26 163.757 26C163.889 26 164.021 25.9647 164.139 25.8948L174.625 19.6639C174.857 19.5264 175 19.2737 175 19.0011C175 18.7284 174.858 18.475 174.625 18.3375ZM164.514 23.8918V14.1073L172.745 19.0003L164.514 23.8918Z" fill="#D2D2D2"/>
<path fill-rule="evenodd" clip-rule="evenodd" d="M116.704 5.123C117.484 4.99068 118.358 4.9465 119.18 5.08424C120.649 5.33022 122.006 6.006 123.078 7.01916C123.779 7.03484 124.468 6.89813 125.077 6.70324C125.593 6.53829 126.029 6.33913 126.334 6.18164C126.486 6.10334 126.604 6.03654 126.68 5.99132C126.718 5.96874 126.746 5.95166 126.762 5.94135L126.777 5.93214C127.232 5.63168 127.839 5.69015 128.227 6.07233C128.615 6.45458 128.678 7.05467 128.377 7.50736C128.058 7.98645 127.615 8.84053 127.119 9.79747C127.041 9.94793 126.962 10.1009 126.882 10.2554C126.597 10.8024 126.306 11.3552 126.034 11.8295C125.863 12.1273 125.681 12.4297 125.497 12.6909V13.107C125.508 14.635 125.331 16.1551 124.972 17.634C124.746 18.5644 124.448 19.4786 124.079 20.3681C123.124 22.6726 121.714 24.7658 119.933 26.5249C118.151 28.2843 116.033 29.6743 113.703 30.6143C111.375 31.5534 108.881 32.0241 106.367 31.999C102.723 32.0022 99.1549 30.9627 96.0933 29.0057C95.6423 28.7175 95.4524 28.1589 95.6356 27.6594C95.8188 27.16 96.3264 26.8521 96.8591 26.9173C97.3201 26.9738 97.7842 27.0013 98.2488 26.9998C99.9179 26.9952 101.555 26.6301 103.05 25.9424C102.575 25.7283 102.121 25.4642 101.697 25.153C100.451 24.2384 99.5246 22.9621 99.0456 21.5015C98.9211 21.1221 99.0062 20.7058 99.2699 20.404C99.2746 20.3987 99.2794 20.3932 99.2842 20.3879C99.0025 20.1393 98.7389 19.8685 98.4963 19.5774C97.4045 18.2672 96.8033 16.6239 96.7944 14.9255L96.7944 14.9196L96.7944 14.8436C96.7944 14.4396 97.0105 14.0658 97.3623 13.8611C97.4514 13.8092 97.546 13.7702 97.6432 13.744C97.1239 12.7182 96.8539 11.5854 96.8558 10.4363C96.8552 9.13439 97.1987 7.85501 97.8522 6.72522C98.0408 6.39909 98.3798 6.18599 98.7582 6.15565C99.1366 6.12529 99.5058 6.28157 99.745 6.57339C101.222 8.37557 103.066 9.84991 105.157 10.9006C106.231 11.4407 107.359 11.8627 108.519 12.1612C109.169 12.3285 109.83 12.4571 110.497 12.5458C110.468 11.4468 110.687 10.3484 111.147 9.33348C111.822 7.8446 112.977 6.61959 114.431 5.85057C115.046 5.52489 115.864 5.26549 116.704 5.123ZM99.3934 16.5916C99.5924 17.1461 99.8884 17.6663 100.272 18.1268C101.026 19.0317 102.073 19.6511 103.235 19.8799C103.753 19.9819 104.134 20.4193 104.16 20.9413C104.187 21.4632 103.851 21.9358 103.346 22.0879C102.928 22.214 102.499 22.3017 102.066 22.3505C102.352 22.7159 102.689 23.0434 103.069 23.3221C103.93 23.9545 104.969 24.3052 106.041 24.3257C106.528 24.335 106.956 24.6459 107.11 25.1027C107.265 25.5593 107.113 26.0629 106.731 26.3607C105.121 27.6152 103.258 28.4898 101.285 28.9364C102.921 29.4549 104.636 29.7219 106.371 29.7198H106.384C108.594 29.7425 110.787 29.3291 112.834 28.5034C114.881 27.6778 116.742 26.4566 118.307 24.9112C119.872 23.3658 121.11 21.5272 121.949 19.5028C122.273 18.7214 122.535 17.9183 122.734 17.101C123.049 15.8006 123.205 14.4639 123.194 13.1203V13.1113V12.306C123.194 12.0297 123.296 11.7627 123.48 11.5549C123.586 11.4348 123.772 11.1574 124.031 10.7047C124.278 10.2745 124.551 9.75804 124.835 9.21225C124.852 9.17923 124.869 9.14606 124.886 9.11272C124.15 9.27098 123.316 9.35393 122.441 9.26034C122.164 9.23071 121.908 9.10263 121.719 8.89987C120.947 8.07122 119.919 7.51962 118.796 7.33159C118.298 7.24816 117.696 7.26726 117.093 7.36958C116.437 7.48075 115.867 7.67526 115.516 7.86092C114.511 8.3921 113.714 9.23823 113.248 10.2666C112.781 11.295 112.673 12.4475 112.94 13.5433C113.025 13.8927 112.939 14.2613 112.707 14.5379C112.475 14.8145 112.125 14.9667 111.763 14.9485C110.468 14.8837 109.187 14.6882 107.94 14.3672C106.62 14.0276 105.337 13.5475 104.114 12.933C102.314 12.0282 100.675 10.8474 99.2556 9.43776C99.1908 9.76539 99.1579 10.0997 99.1581 10.4362V10.4391C99.1565 11.276 99.364 12.1002 99.762 12.8385C100.16 13.5767 100.736 14.2061 101.439 14.6706C101.866 14.9524 102.053 15.4798 101.898 15.9638C101.742 16.4479 101.282 16.7716 100.769 16.7577C100.305 16.7453 99.8441 16.6893 99.3934 16.5916Z" fill="#D2D2D2"/>
<path d="M56.7831 13.8564C55.5377 13.8564 54.3433 14.343 53.4627 15.2092C52.582 16.0754 52.0873 17.2503 52.0873 18.4752C52.0873 19.7002 52.582 20.8751 53.4627 21.7413C54.3433 22.6075 55.5377 23.0941 56.7831 23.0941C58.0285 23.0941 59.2229 22.6075 60.1036 21.7413C60.9842 20.8751 61.4789 19.7002 61.4789 18.4752C61.4789 17.2503 60.9842 16.0754 60.1036 15.2092C59.2229 14.343 58.0285 13.8564 56.7831 13.8564ZM56.7831 10.7772C58.8588 10.7772 60.8495 11.5882 62.3172 13.0319C63.7849 14.4756 64.6095 16.4336 64.6095 18.4752C64.6095 20.5169 63.7849 22.4749 62.3172 23.9186C60.8495 25.3623 58.8588 26.1733 56.7831 26.1733C54.7074 26.1733 52.7168 25.3623 51.249 23.9186C49.7813 22.4749 48.9567 20.5169 48.9567 18.4752C48.9567 16.4336 49.7813 14.4756 51.249 13.0319C52.7168 11.5882 54.7074 10.7772 56.7831 10.7772ZM66.9574 10.3923C66.9574 10.9027 66.7513 11.3922 66.3843 11.7531C66.0174 12.114 65.5197 12.3168 65.0008 12.3168C64.4819 12.3168 63.9842 12.114 63.6173 11.7531C63.2504 11.3922 63.0442 10.9027 63.0442 10.3923C63.0442 9.88186 63.2504 9.39235 63.6173 9.03143C63.9842 8.67051 64.4819 8.46775 65.0008 8.46775C65.5197 8.46775 66.0174 8.67051 66.3843 9.03143C66.7513 9.39235 66.9574 9.88186 66.9574 10.3923ZM56.7831 6.15833C52.9106 6.15833 52.2783 6.16911 50.4766 6.24763C49.2495 6.30459 48.4261 6.46625 47.6623 6.75878C46.9829 7.01744 46.493 7.3269 45.9718 7.84113C45.4818 8.30671 45.1052 8.87511 44.8698 9.50391C44.5724 10.2583 44.4081 11.0666 44.3517 12.2721C44.2703 13.9719 44.2609 14.5662 44.2609 18.4752C44.2609 22.2843 44.2719 22.9063 44.3517 24.6784C44.4096 25.8839 44.574 26.6952 44.8698 27.445C45.1359 28.1148 45.449 28.5967 45.9686 29.1078C46.4961 29.6251 46.9861 29.9346 47.6591 30.1902C48.4324 30.4842 49.2557 30.6474 50.4766 30.7029C52.2047 30.7829 52.8089 30.7922 56.7831 30.7922C60.6556 30.7922 61.288 30.7814 63.0896 30.7029C64.3137 30.6459 65.1386 30.4842 65.9024 30.1933C66.5802 29.9331 67.0732 29.6236 67.5929 29.1124C68.1204 28.5936 68.435 28.1117 68.6949 27.4497C68.9923 26.6906 69.1582 25.8793 69.2145 24.6784C69.2959 22.9786 69.3053 22.3843 69.3053 18.4752C69.3053 14.6662 69.2944 14.0442 69.2145 12.2721C69.1566 11.0682 68.9923 10.2552 68.6949 9.50391C68.459 8.87575 68.083 8.30757 67.5945 7.84113C67.1213 7.35899 66.5434 6.98844 65.904 6.75724C65.137 6.46471 64.3137 6.30305 63.0896 6.24763C61.3615 6.16757 60.7574 6.15833 56.7831 6.15833ZM56.7831 3.0791C61.036 3.0791 61.5666 3.0945 63.2352 3.17148C64.9022 3.24846 66.037 3.50557 67.0357 3.8874C68.0687 4.27846 68.939 4.80809 69.8093 5.66257C70.6053 6.43222 71.2211 7.36322 71.6141 8.39077C72.0007 9.37151 72.2637 10.4893 72.3419 12.129C72.4155 13.7702 72.4359 14.2921 72.4359 18.4752C72.4359 22.6584 72.4202 23.1803 72.3419 24.8215C72.2637 26.4612 72.0007 27.5774 71.6141 28.5597C71.2223 29.5878 70.6062 30.5191 69.8093 31.2879C69.0266 32.0705 68.0802 32.6763 67.0357 33.0631C66.0386 33.4434 64.9022 33.702 63.2352 33.779C61.5666 33.8514 61.036 33.8714 56.7831 33.8714C52.5303 33.8714 51.9996 33.856 50.3311 33.779C48.664 33.702 47.5292 33.4434 46.5306 33.0631C45.4855 32.6774 44.5388 32.0715 43.7569 31.2879C42.9608 30.5184 42.3449 29.5874 41.9521 28.5597C41.564 27.579 41.3026 26.4612 41.2243 24.8215C41.1507 23.1803 41.1304 22.6584 41.1304 18.4752C41.1304 14.2921 41.146 13.7702 41.2243 12.129C41.3026 10.4877 41.564 9.37304 41.9521 8.39077C42.3438 7.36259 42.9599 6.43134 43.7569 5.66257C44.539 4.87927 45.4856 4.27343 46.5306 3.8874C47.5292 3.50557 48.6625 3.24846 50.3311 3.17148C51.9996 3.09912 52.5303 3.0791 56.7831 3.0791Z" fill="#D2D2D2"/>
<path fill-rule="evenodd" clip-rule="evenodd" d="M6.69111 5.36568C8.24574 3.85095 10.3541 3 12.5526 3H16.8158C17.4698 3 18 3.5166 18 4.15385V9.69231C18 10.3296 17.4698 10.8462 16.8158 10.8462H12.5526C12.4898 10.8462 12.4296 10.8705 12.3851 10.9137C12.3407 10.957 12.3158 11.0157 12.3158 11.0769V14.0769H16.8158C17.1805 14.0769 17.5247 14.2406 17.7493 14.5207C17.9736 14.8007 18.0531 15.1658 17.9646 15.5106L16.5436 21.0491C16.4117 21.5628 15.9382 21.9231 15.3947 21.9231H12.3158V31.8462C12.3158 32.4834 11.7856 33 11.1316 33H5.44737C4.79335 33 4.26316 32.4834 4.26316 31.8462V21.9231H1.18421C0.530195 21.9231 0 21.4065 0 20.7692V15.2308C0 14.5935 0.530195 14.0769 1.18421 14.0769H4.26316V11.0769C4.26316 8.93478 5.13651 6.8804 6.69111 5.36568ZM12.5526 5.30769C10.9822 5.30769 9.47621 5.91552 8.36574 6.99746C7.25542 8.0794 6.63158 9.54683 6.63158 11.0769V15.2308C6.63158 15.868 6.10137 16.3846 5.44737 16.3846H2.36842V19.6154H5.44737C6.10137 19.6154 6.63158 20.132 6.63158 20.7692V30.6923H9.94737V20.7692C9.94737 20.132 10.4776 19.6154 11.1316 19.6154H14.4701L15.2991 16.3846H11.1316C10.4776 16.3846 9.94737 15.868 9.94737 15.2308V11.0769C9.94737 10.4037 10.2218 9.75802 10.7105 9.28195C11.199 8.80591 11.8617 8.53846 12.5526 8.53846H15.6316V5.30769H12.5526Z" fill="#D2D2D2"/>
</svg>
