<svg width="583" height="1008" viewBox="0 0 583 1008" fill="none" xmlns="http://www.w3.org/2000/svg">
<rect y="1008" width="1008" height="583" rx="12" transform="rotate(-90 0 1008)" fill="#2552C7"/>
<mask id="mask0_856_108" style="mask-type:alpha" maskUnits="userSpaceOnUse" x="0" y="0" width="583" height="1008">
<rect y="1008" width="1008" height="583" rx="12" transform="rotate(-90 0 1008)" fill="#2552C7"/>
</mask>
<g mask="url(#mask0_856_108)">
<path d="M584.5 327C547.833 281 464.7 197.1 425.5 229.5C376.5 270 393.5 326 358.5 319C323.5 312 272.5 144.5 225.5 157C178.5 169.5 209 193 122.5 256C36 319 -17 245 -24 229.5" stroke="white" stroke-opacity="0.4"/>
<path d="M584.5 327C547.833 281 464.7 197.1 425.5 229.5C376.5 270 393.5 326 358.5 319C323.5 312 272.5 144.5 225.5 157C178.5 169.5 209 193 122.5 256C36 319 -17 245 -24 229.5" stroke="white" stroke-opacity="0.4"/>
<path d="M5 97.0004C13.5 127.5 82 225.5 135 169.5C188 113.5 231.5 62.9996 256.5 80C281.5 97.0004 348.5 133 368 87C387.5 41 467 68.5 482.5 106.5C498 144.5 532.5 136 549.5 116.5C563.1 100.9 589.833 85.6668 601.5 80" stroke="white" stroke-opacity="0.4"/>
<path d="M5 97.0004C13.5 127.5 82 225.5 135 169.5C188 113.5 231.5 62.9996 256.5 80C281.5 97.0004 348.5 133 368 87C387.5 41 467 68.5 482.5 106.5C498 144.5 532.5 136 549.5 116.5C563.1 100.9 589.833 85.6668 601.5 80" stroke="white" stroke-opacity="0.4"/>
<path d="M576 -1.23973C565.176 11.4051 538.606 35.2972 518.914 29.7069C494.299 22.7189 493.775 -15.2155 426.739 -34.6819C359.702 -54.1483 296.331 -43.1675 280.62 -1.23973C264.908 40.6881 140.261 50.1717 132.929 12.7363C125.597 -24.6991 90.5076 -71.1193 64.3214 -1.23973C38.1352 68.6398 46.5148 26.7123 -9 12.7363" stroke="white" stroke-opacity="0.4"/>
<path d="M576 -1.23973C565.176 11.4051 538.606 35.2972 518.914 29.7069C494.299 22.7189 493.775 -15.2155 426.739 -34.6819C359.702 -54.1483 296.331 -43.1675 280.62 -1.23973C264.908 40.6881 140.261 50.1717 132.929 12.7363C125.597 -24.6991 90.5076 -71.1193 64.3214 -1.23973C38.1352 68.6398 46.5148 26.7123 -9 12.7363" stroke="white" stroke-opacity="0.4"/>
<path d="M577 977.953C542 1007.12 463.9 1060.75 431.5 1041.95C391 1018.45 337 902.453 307.5 889.953C278 877.453 239.5 953.453 222 958.453C204.5 963.453 141.5 841.453 99 834.953C56.5 828.453 48 968.954 16 977.953C-9.6 985.153 -31.3333 967.953 -39 958.453" stroke="white" stroke-opacity="0.4"/>
<path d="M577 977.953C542 1007.12 463.9 1060.75 431.5 1041.95C391 1018.45 337 902.453 307.5 889.953C278 877.453 239.5 953.453 222 958.453C204.5 963.453 141.5 841.453 99 834.953C56.5 828.453 48 968.954 16 977.953C-9.6 985.153 -31.3333 967.953 -39 958.453" stroke="white" stroke-opacity="0.4"/>
<path d="M583 879.453C560.167 903.453 511.7 949.853 500.5 943.453C486.5 935.453 450.5 884.953 428 870.953C405.5 856.953 372 774.953 333 778.953C294 782.953 285 795.953 254.5 833.453C224 870.953 205 787.453 174 778.953C143 770.453 152.5 759.453 115 739.953C77.5 720.453 66 711.953 42.5 739.953C19 767.953 83 786.453 -31.5 767.953" stroke="white" stroke-opacity="0.4"/>
<path d="M583 879.453C560.167 903.453 511.7 949.853 500.5 943.453C486.5 935.453 450.5 884.953 428 870.953C405.5 856.953 372 774.953 333 778.953C294 782.953 285 795.953 254.5 833.453C224 870.953 205 787.453 174 778.953C143 770.453 152.5 759.453 115 739.953C77.5 720.453 66 711.953 42.5 739.953C19 767.953 83 786.453 -31.5 767.953" stroke="white" stroke-opacity="0.4"/>
<path d="M39.5 1010.66C75.5571 988.48 129.142 982.431 148.673 996.547C168.204 1010.66 207.265 1067.13 233.807 1031.84C260.349 996.547 300.914 982.431 321.947 996.547C338.774 1007.84 351.327 1034.19 355.5 1045.95" stroke="white" stroke-opacity="0.4"/>
<path d="M39.5 1010.66C75.5571 988.48 129.142 982.431 148.673 996.547C168.204 1010.66 207.265 1067.13 233.807 1031.84C260.349 996.547 300.914 982.431 321.947 996.547C338.774 1007.84 351.327 1034.19 355.5 1045.95" stroke="white" stroke-opacity="0.4"/>
</g>
</svg>
