<svg width="1279" height="583" viewBox="0 0 1279 583" fill="none" xmlns="http://www.w3.org/2000/svg">
<rect width="1279" height="583" rx="12" fill="#2552C7"/>
<mask id="mask0_854_106" style="mask-type:alpha" maskUnits="userSpaceOnUse" x="0" y="0" width="1279" height="583">
<rect width="1279" height="583" rx="12" fill="#2552C7"/>
</mask>
<g mask="url(#mask0_854_106)">
<path d="M952 584.5C998 547.833 1081.9 464.7 1049.5 425.5C1009 376.5 953 393.5 960 358.5C967 323.5 1134.5 272.5 1122 225.5C1109.5 178.5 1086 209 1023 122.5C960 36 1034 -17 1049.5 -24" stroke="white" stroke-opacity="0.4"/>
<path d="M952 584.5C998 547.833 1081.9 464.7 1049.5 425.5C1009 376.5 953 393.5 960 358.5C967 323.5 1134.5 272.5 1122 225.5C1109.5 178.5 1086 209 1023 122.5C960 36 1034 -17 1049.5 -24" stroke="white" stroke-opacity="0.4"/>
<path d="M1182 5C1151.5 13.5 1053.5 82 1109.5 135C1165.5 188 1216 231.5 1199 256.5C1182 281.5 1146 348.5 1192 368C1238 387.5 1210.5 467 1172.5 482.5C1134.5 498 1143 532.5 1162.5 549.5C1178.1 563.1 1193.33 589.833 1199 601.5" stroke="white" stroke-opacity="0.4"/>
<path d="M1182 5C1151.5 13.5 1053.5 82 1109.5 135C1165.5 188 1216 231.5 1199 256.5C1182 281.5 1146 348.5 1192 368C1238 387.5 1210.5 467 1172.5 482.5C1134.5 498 1143 532.5 1162.5 549.5C1178.1 563.1 1193.33 589.833 1199 601.5" stroke="white" stroke-opacity="0.4"/>
<path d="M1280.24 576C1267.59 565.176 1243.7 538.606 1249.29 518.914C1256.28 494.299 1294.22 493.775 1313.68 426.739C1333.15 359.702 1322.17 296.331 1280.24 280.62C1238.31 264.908 1228.83 140.261 1266.26 132.929C1303.7 125.597 1350.12 90.5076 1280.24 64.3214C1210.36 38.1352 1252.29 46.5148 1266.26 -9" stroke="white" stroke-opacity="0.4"/>
<path d="M1280.24 576C1267.59 565.176 1243.7 538.606 1249.29 518.914C1256.28 494.299 1294.22 493.775 1313.68 426.739C1333.15 359.702 1322.17 296.331 1280.24 280.62C1238.31 264.908 1228.83 140.261 1266.26 132.929C1303.7 125.597 1350.12 90.5076 1280.24 64.3214C1210.36 38.1352 1252.29 46.5148 1266.26 -9" stroke="white" stroke-opacity="0.4"/>
<path d="M30.9998 581.5C1.83311 546.5 -51.8002 468.4 -33.0002 436C-9.50023 395.5 106.5 341.5 119 312C131.5 282.5 55.5 244 50.5 226.5C45.5 209 167.5 146 174 103.5C180.5 61 39.9995 52.5 30.9998 20.5C23.8 -5.1 41 -26.8333 50.5 -34.5" stroke="white" stroke-opacity="0.4"/>
<path d="M30.9998 581.5C1.83311 546.5 -51.8002 468.4 -33.0002 436C-9.50023 395.5 106.5 341.5 119 312C131.5 282.5 55.5 244 50.5 226.5C45.5 209 167.5 146 174 103.5C180.5 61 39.9995 52.5 30.9998 20.5C23.8 -5.1 41 -26.8333 50.5 -34.5" stroke="white" stroke-opacity="0.4"/>
<path d="M129.5 587.5C105.5 564.667 59.1001 516.2 65.5001 505C73.5001 491 124 455 138 432.5C152 410 234 376.5 230 337.5C226 298.5 213 289.5 175.5 259C138 228.5 221.5 209.5 230 178.5C238.5 147.5 249.5 157 269 119.5C288.5 82 297 70.5 269 47C241 23.5 222.5 87.5 241 -27" stroke="white" stroke-opacity="0.4"/>
<path d="M129.5 587.5C105.5 564.667 59.1001 516.2 65.5001 505C73.5001 491 124 455 138 432.5C152 410 234 376.5 230 337.5C226 298.5 213 289.5 175.5 259C138 228.5 221.5 209.5 230 178.5C238.5 147.5 249.5 157 269 119.5C288.5 82 297 70.5 269 47C241 23.5 222.5 87.5 241 -27" stroke="white" stroke-opacity="0.4"/>
<path d="M-1.70984 44C20.4727 80.0571 26.5225 133.642 12.4063 153.173C-1.70984 172.704 -58.1745 211.765 -22.8841 238.307C12.4063 264.849 26.5225 305.414 12.4063 326.447C1.11339 343.274 -25.2366 355.827 -37 360" stroke="white" stroke-opacity="0.4"/>
<path d="M-1.70984 44C20.4727 80.0571 26.5225 133.642 12.4063 153.173C-1.70984 172.704 -58.1745 211.765 -22.8841 238.307C12.4063 264.849 26.5225 305.414 12.4063 326.447C1.11339 343.274 -25.2366 355.827 -37 360" stroke="white" stroke-opacity="0.4"/>
</g>
</svg>
