<svg width="805" height="272" viewBox="0 0 805 272" fill="none" xmlns="http://www.w3.org/2000/svg">
<rect width="805" height="272" rx="40" fill="#A5A9F8"/>
<mask id="mask0_1708_114" style="mask-type:alpha" maskUnits="userSpaceOnUse" x="0" y="0" width="805" height="272">
<rect width="805" height="272" rx="40" fill="#A5A9F8"/>
</mask>
<g mask="url(#mask0_1708_114)">
<path d="M490.5 271.5L548.633 203.453C552.338 199.116 558.584 197.987 563.574 200.752L587.793 214.174C592.842 216.973 599.168 215.779 602.851 211.334L658.728 143.882C663.001 138.723 670.67 138.062 675.763 142.412L682.281 147.98C686.953 151.97 693.883 151.787 698.338 147.557L740.828 107.21C745.813 102.475 753.75 102.89 758.215 108.118L780.821 134.584C785.953 140.591 795.388 140.086 799.85 133.566L810.5 118" stroke="#EBECFF" stroke-opacity="0.2" stroke-width="3" stroke-linecap="round"/>
<path d="M626.5 273L672.917 231.355C677.066 227.633 683.232 227.257 687.802 230.449L702.529 240.735C707.612 244.285 714.562 243.379 718.564 238.644L748.322 203.447C753.285 197.577 762.41 197.821 767.051 203.948L774.986 214.421C779.275 220.083 787.518 220.8 792.721 215.964L818.5 192" stroke="#EBECFF" stroke-opacity="0.2" stroke-width="3" stroke-linecap="round"/>
<path d="M0 71.5L34.6556 34.4815C39.4964 29.3107 47.8537 29.8455 51.996 35.5912V35.5912C55.9714 41.1055 63.8914 41.862 68.8388 37.2L111.5 -3" stroke="#EBECFF" stroke-opacity="0.2" stroke-width="3" stroke-linecap="round"/>
<path d="M0 46L38.5626 8.28496C42.5233 4.41132 48.7513 4.10107 53.0774 7.56191V7.56191C57.3368 10.9694 63.4534 10.7274 67.4303 6.99404L85 -9.5" stroke="#EBECFF" stroke-opacity="0.2" stroke-width="3" stroke-linecap="round"/>
</g>
</svg>
