<svg width="805" height="503" viewBox="0 0 805 503" fill="none" xmlns="http://www.w3.org/2000/svg">
<rect width="805" height="503" rx="40" fill="#FFA91E"/>
<mask id="mask0_1708_115" style="mask-type:alpha" maskUnits="userSpaceOnUse" x="0" y="0" width="805" height="503">
<rect width="805" height="503" rx="40" fill="#FFA91E"/>
</mask>
<g mask="url(#mask0_1708_115)">
<path d="M524 502.5L581.251 432.671C586.278 426.54 595.037 425.015 601.841 429.086L644.111 454.385C650.936 458.469 659.724 456.921 664.742 450.75L719.686 383.183C725.346 376.223 735.622 375.275 742.459 381.083L762.8 398.362C770.095 404.559 781.162 403.007 786.471 395.043L813.5 354.5" stroke="white" stroke-opacity="0.2" stroke-width="4" stroke-linecap="round"/>
<path d="M707.5 503.5L729.038 478.249C733.281 473.274 740.594 472.301 745.99 475.993V475.993C751.395 479.691 758.72 478.709 762.959 473.717L777.234 456.91C782.51 450.698 791.612 449.445 798.37 454L809.5 461.5" stroke="white" stroke-opacity="0.2" stroke-width="4" stroke-linecap="round"/>
<path d="M237.5 -2L180.249 67.8289C175.222 73.9603 166.463 75.4853 159.659 71.4136L117.389 46.1153C110.564 42.031 101.776 43.5792 96.7585 49.7497L41.8135 117.317C36.1537 124.277 25.8784 125.225 19.0413 119.417L-1.29986 102.138C-8.59472 95.9411 -19.6619 97.4928 -24.9712 105.457L-52 146" stroke="white" stroke-opacity="0.2" stroke-width="4" stroke-linecap="round"/>
<path d="M54 -3L32.462 22.2514C28.2188 27.2262 20.9064 28.1991 15.51 24.5069V24.5069C10.1052 20.8088 2.78003 21.7913 -1.45938 26.7828L-15.7337 43.5896C-21.0096 49.8016 -30.1118 51.0551 -36.8704 46.5004L-48 39" stroke="white" stroke-opacity="0.2" stroke-width="4" stroke-linecap="round"/>
</g>
</svg>
